<svg xmlns="http://www.w3.org/2000/svg" viewBox="0 0 128 128" width="128" height="128">
  <defs>
    <radialGradient id="bg" cx="50%" cy="45%" r="60%">
      <stop offset="0%" stop-color="#1e293b"/>
      <stop offset="100%" stop-color="#0f172a"/>
    </radialGradient>
    <filter id="glow">
      <feGaussianBlur in="SourceGraphic" stdDeviation="1.5" result="blur"/>
      <feMerge><feMergeNode in="blur"/><feMergeNode in="SourceGraphic"/></feMerge>
    </filter>
  </defs>

  <!-- Background circle -->
  <circle cx="64" cy="64" r="60" fill="url(#bg)" stroke="#1e40af" stroke-width="1.2"/>
  <circle cx="64" cy="64" r="58.5" fill="none" stroke="#3b82f6" stroke-width="0.3" opacity="0.15"/>

  <!-- PRIMARY GOLDEN DECAGON MATRIX - the face framework -->
  <!-- Main decagon (10-sided, phi-based) centered on face -->
  <g stroke="#3b82f6" stroke-width="0.5" fill="none" opacity="0.25">
    <polygon points="64,14 82,20 93,36 93,56 82,72 64,78 46,72 35,56 35,36 46,20"/>
  </g>

  <!-- Secondary decagon (inverted, smaller by phi) -->
  <g stroke="#3b82f6" stroke-width="0.4" fill="none" opacity="0.18">
    <polygon points="64,22 77,26 85,38 85,54 77,66 64,70 51,66 43,54 43,38 51,26"/>
  </g>

  <!-- Phi-ratio horizontal guide lines -->
  <g stroke="#3b82f6" stroke-width="0.35" fill="none" opacity="0.2">
    <!-- Hairline -->
    <line x1="38" y1="22" x2="90" y2="22"/>
    <!-- Brow line (1/phi of face) -->
    <line x1="35" y1="34" x2="93" y2="34"/>
    <!-- Eye line -->
    <line x1="36" y1="42" x2="92" y2="42"/>
    <!-- Nose base -->
    <line x1="40" y1="58" x2="88" y2="58"/>
    <!-- Lip line -->
    <line x1="42" y1="66" x2="86" y2="66"/>
    <!-- Chin -->
    <line x1="48" y1="78" x2="80" y2="78"/>
    <!-- Vertical midline -->
    <line x1="64" y1="14" x2="64" y2="92"/>
  </g>

  <!-- FACE OUTLINE - smooth oval derived from decagon vertices -->
  <g stroke="#3b82f6" stroke-width="0.7" fill="none" opacity="0.4">
    <path d="M 64,16 C 47,16 36,26 34,40 C 32,52 34,64 40,76 C 46,86 54,92 64,94 C 74,92 82,86 88,76 C 94,64 96,52 94,40 C 92,26 81,16 64,16 Z"/>
  </g>

  <!-- SECONDARY DECAGON MATRICES - facial features -->
  <!-- Left eye decagon -->
  <g stroke="#60a5fa" stroke-width="0.5" fill="none" opacity="0.4">
    <polygon points="50,38 54,36 58,38 58,42 56,45 52,45 48,44 46,42 46,39 48,37"/>
  </g>
  <!-- Right eye decagon -->
  <g stroke="#60a5fa" stroke-width="0.5" fill="none" opacity="0.4">
    <polygon points="70,38 74,36 78,38 80,42 80,44 78,45 74,45 70,44 68,42 68,39"/>
  </g>

  <!-- Nose pentagon -->
  <g stroke="#60a5fa" stroke-width="0.5" fill="none" opacity="0.35">
    <polygon points="64,40 69,50 67,58 61,58 59,50"/>
  </g>

  <!-- Mouth decagon (smaller) -->
  <g stroke="#60a5fa" stroke-width="0.45" fill="none" opacity="0.35">
    <polygon points="56,62 58,60 62,59 66,59 70,60 72,62 70,65 66,67 62,67 58,65"/>
  </g>

  <!-- Chin pentagon -->
  <g stroke="#60a5fa" stroke-width="0.4" fill="none" opacity="0.3">
    <polygon points="64,70 72,74 70,82 58,82 56,74"/>
  </g>

  <!-- TRIANGULATED MESH - connecting the decagon vertices -->
  <g stroke="#3b82f6" stroke-width="0.45" fill="none" opacity="0.35">
    <!-- Forehead triangulation -->
    <line x1="46" y1="20" x2="64" y2="16"/>
    <line x1="64" y1="16" x2="82" y2="20"/>
    <line x1="46" y1="20" x2="54" y2="36"/>
    <line x1="82" y1="20" x2="74" y2="36"/>
    <line x1="64" y1="16" x2="64" y2="34"/>
    <line x1="46" y1="20" x2="64" y2="34"/>
    <line x1="82" y1="20" x2="64" y2="34"/>

    <!-- Temple to eye -->
    <line x1="35" y1="36" x2="46" y2="38"/>
    <line x1="93" y1="36" x2="80" y2="38"/>

    <!-- Eye to nose bridge -->
    <line x1="58" y1="42" x2="64" y2="40"/>
    <line x1="68" y1="42" x2="64" y2="40"/>

    <!-- Cheek lines -->
    <line x1="35" y1="56" x2="48" y2="44"/>
    <line x1="93" y1="56" x2="80" y2="44"/>
    <line x1="35" y1="56" x2="56" y2="58"/>
    <line x1="93" y1="56" x2="72" y2="58"/>

    <!-- Nose to mouth -->
    <line x1="61" y1="58" x2="58" y2="60"/>
    <line x1="67" y1="58" x2="70" y2="60"/>

    <!-- Jaw lines -->
    <line x1="46" y1="72" x2="56" y2="62"/>
    <line x1="82" y1="72" x2="72" y2="62"/>
    <line x1="46" y1="72" x2="56" y2="74"/>
    <line x1="82" y1="72" x2="72" y2="74"/>

    <!-- Chin -->
    <line x1="64" y1="78" x2="58" y2="67"/>
    <line x1="64" y1="78" x2="70" y2="67"/>
  </g>

  <!-- KEY LANDMARK NODES - left side (blue, symmetric) -->
  <g fill="#60a5fa" opacity="0.6">
    <circle cx="46" cy="20" r="1.3"/>
    <circle cx="35" cy="36" r="1.3"/>
    <circle cx="46" cy="38" r="1.3"/>
    <circle cx="48" cy="44" r="1.3"/>
    <circle cx="35" cy="56" r="1.3"/>
    <circle cx="52" cy="45" r="1.3"/>
    <circle cx="59" cy="50" r="1.3"/>
    <circle cx="56" cy="62" r="1.3"/>
    <circle cx="46" cy="72" r="1.3"/>
    <circle cx="56" cy="74" r="1.3"/>
    <circle cx="64" cy="16" r="1.3"/>
    <circle cx="64" cy="40" r="1.3"/>
    <circle cx="64" cy="78" r="1.5"/>
    <circle cx="64" cy="94" r="1.3"/>
  </g>

  <!-- RIGHT SIDE NODES - amber (deformed) with glow -->
  <!-- This is the "Diff" -- the right side is displaced -->
  <g fill="#f59e0b" filter="url(#glow)">
    <circle cx="82" cy="20" r="1.6"/>
    <circle cx="93" cy="36" r="1.6"/>
    <circle cx="80" cy="38" r="1.6"/>
    <circle cx="80" cy="44" r="1.6"/>
    <circle cx="93" cy="56" r="1.6"/>
    <circle cx="74" cy="45" r="1.6"/>
    <circle cx="69" cy="50" r="1.6"/>
    <circle cx="72" cy="62" r="1.6"/>
    <circle cx="82" cy="72" r="1.6"/>
    <circle cx="72" cy="74" r="1.6"/>
  </g>

  <!-- Deformation vectors on nose (the procedure being shown) -->
  <g stroke="#f59e0b" stroke-width="0.9" fill="none" opacity="0.5" stroke-linecap="round">
    <line x1="69" y1="50" x2="71" y2="47"/>
    <line x1="67" y1="58" x2="69" y2="55"/>
    <line x1="64" y1="40" x2="64" y2="37"/>
  </g>

  <!-- Subtle amber glow behind deformation zone -->
  <g fill="#f59e0b" opacity="0.12">
    <circle cx="68" cy="50" r="10"/>
    <circle cx="67" cy="57" r="6"/>
  </g>
</svg>
